<svg xmlns="http://www.w3.org/2000/svg" width="79.331" height="79.244" viewBox="0 0 79.331 79.244">
    <defs>
        <filter id="5vjnn3fnoa" x="0" y="0" width="79.331" height="79.244" filterUnits="userSpaceOnUse">
            <feOffset dy="3"/>
            <feGaussianBlur stdDeviation="3" result="blur"/>
            <feFlood flood-opacity=".439"/>
            <feComposite operator="in" in2="blur"/>
            <feComposite in="SourceGraphic"/>
        </filter>
        <filter id="d3noi32h4b" x="23.557" y="13.593" width="33.424" height="33.404" filterUnits="userSpaceOnUse">
            <feOffset dy="3"/>
            <feGaussianBlur stdDeviation="3" result="blur-2"/>
            <feFlood flood-opacity=".439"/>
            <feComposite operator="in" in2="blur-2"/>
            <feComposite in="SourceGraphic"/>
        </filter>
        <filter id="tboau6tosc" x="18.697" y="29.619" width="43.145" height="34.385" filterUnits="userSpaceOnUse">
            <feOffset dy="3"/>
            <feGaussianBlur stdDeviation="3" result="blur-3"/>
            <feFlood flood-opacity=".439"/>
            <feComposite operator="in" in2="blur-3"/>
            <feComposite in="SourceGraphic"/>
        </filter>
    </defs>
    <g data-name="Grupo 5">
        <g style="filter:url(#5vjnn3fnoa)">
            <path data-name="Trazado 13" d="M-309.816 544.45a.853.853 0 0 1 .016-1.135 5.842 5.842 0 0 0 .955-3.381 176.24 176.24 0 0 1 0-4.768 5.8 5.8 0 0 0-.981-3.48.831.831 0 0 1 .021-1.128 5.334 5.334 0 0 0 .945-2.947c.025-1.914.041-3.83 0-5.743a5.681 5.681 0 0 0-3.81-5.158c-.681-.238-1.693.154-2-.617a6.463 6.463 0 0 1-.062-2.254v-.217c-.012-2.067-.834-2.9-2.872-2.9h-42.906c-2.005 0-2.868.874-2.875 2.915-.006 1.915-.026 3.829.012 5.743.013.646-.142.892-.836.864-1.334-.055-2.673-.039-4.008-.006a1.933 1.933 0 0 0-1.941 1.911 1.928 1.928 0 0 0 1.865 1.879c.647.048 1.3-.011 1.949.026.96.055 2.27-.437 2.782.212.482.61.1 1.868.189 2.834.063.72-.24.832-.865.812q-1.948-.063-3.9 0a2.035 2.035 0 0 0-2.022 1.986 1.981 1.981 0 0 0 2.091 1.892c.541.016 1.085-.024 1.625.01 1 .063 2.357-.457 2.887.218.5.635.119 1.938.18 2.944.036.6-.146.822-.777.8-1.3-.045-2.6-.033-3.9 0a2.028 2.028 0 0 0-2.106 1.891 2 2 0 0 0 2.114 1.982q1.95.038 3.9 0c.535-.012.8.114.768.714a26.218 26.218 0 0 0 0 2.492c.021.522-.168.683-.683.672q-2-.045-4.009 0a1.973 1.973 0 0 0-2.088 1.9 2.013 2.013 0 0 0 2.134 1.965c1.3.018 2.6.028 3.9-.006.545-.014.788.115.749.71a15.583 15.583 0 0 0 0 2.166c.048.644-.12.89-.819.856-1.261-.061-2.528-.039-3.791-.01a2.046 2.046 0 0 0-2.174 1.946 1.985 1.985 0 0 0 2.159 1.914c.542.009 1.083 0 1.625 0 3.182 0 3.169 0 3 3.213-.027.511-.158.691-.683.678-1.3-.032-2.6-.02-3.9-.006a2.03 2.03 0 0 0-2.2 1.893 2.017 2.017 0 0 0 2.233 1.977c1.156.017 2.314.054 3.466-.012.816-.046 1.137.144 1.1 1.043-.078 1.73-.025 3.467-.022 5.2 0 2.224.785 3.021 2.977 3.021h42.798c2.089 0 2.875-.788 2.878-2.883.005-3.179.012-6.358-.007-9.536 0-.609.043-.919.823-1a5.538 5.538 0 0 0 5.07-5.733c.009-1.626-.017-3.251.008-4.877a5.9 5.9 0 0 0-.982-3.482zm-9.875 23.658q-19.34-.05-38.679 0c-.972 0-1.247-.254-1.175-1.2a32.12 32.12 0 0 0 .011-3.466c-.018-.573.18-.771.743-.736a13.741 13.741 0 0 0 1.841-.006 1.923 1.923 0 0 0 1.846-1.9 1.957 1.957 0 0 0-1.907-1.955h-.217c-.74-.079-1.967.317-2.128-.182a11.118 11.118 0 0 1-.142-3.419c0-.37.364-.27.594-.275.614-.013 1.229.013 1.842-.01a1.873 1.873 0 0 0 1.945-1.782 1.919 1.919 0 0 0-1.58-2.026 5.654 5.654 0 0 0-.642-.065c-.7-.081-1.859.32-2.025-.174a10.444 10.444 0 0 1-.141-3.2c0-.374.316-.323.561-.326.65-.007 1.3.021 1.95-.011a1.942 1.942 0 0 0 1.889-1.862 1.893 1.893 0 0 0-1.754-1.983 15.089 15.089 0 0 0-1.948-.02c-.47.014-.749-.074-.724-.643a33.15 33.15 0 0 0 0-2.6c-.015-.477.174-.641.632-.627.649.02 1.3.033 1.95-.009a1.926 1.926 0 0 0 1.849-1.9 1.962 1.962 0 0 0-1.8-1.96c-.179-.02-.364.012-.541-.016-.685-.11-1.8.364-1.981-.265a11.314 11.314 0 0 1-.057-3.439c.013-.327.39-.239.626-.244.578-.011 1.156.011 1.733-.009a1.915 1.915 0 0 0 2.011-1.952 1.982 1.982 0 0 0-1.954-1.928 17.832 17.832 0 0 0-1.841 0c-.456.018-.682-.133-.624-.615a4.076 4.076 0 0 0 0-.433c.011-.866-.284-1.935.118-2.543.447-.676 1.6-.178 2.432-.27a1.9 1.9 0 0 0 1.859-1.985 1.884 1.884 0 0 0-1.9-1.827h-.217c-2.294-.054-2.294-.055-2.294-2.3 0-.795.053-1.594-.015-2.383-.066-.772.208-.955.958-.951 6.464.03 12.929.017 19.394.017 6.537 0 13.074.017 19.61-.021.83 0 .995.227.992 1.018-.03 8.561-.019 17.121-.019 25.682s-.014 17.122.021 25.683c.01.86-.176 1.12-1.102 1.118zm4.953-43.358c0-1.227.042-2.457-.014-3.682-.041-.885.347-.892.966-.6a1.589 1.589 0 0 1 1.037 1.507v5.524a1.575 1.575 0 0 1-.473 1.166 1.271 1.271 0 0 1-1.256.473c-.51-.16-.237-.68-.248-1.029-.034-1.12-.011-2.24-.011-3.359zm1.4 29.548a1.211 1.211 0 0 1-1.188.363c-.4-.166-.2-.637-.2-.969-.022-1.191-.009-2.382-.009-3.573s.035-2.384-.012-3.573c-.033-.824.368-.822.923-.58a1.624 1.624 0 0 1 1.081 1.591q-.01 2.707 0 5.414a1.6 1.6 0 0 1-.597 1.329zm-.005-12.758a1.157 1.157 0 0 1-1.18.369c-.429-.174-.193-.637-.2-.964-.028-1.155-.011-2.311-.011-3.467 0-1.228.031-2.457-.011-3.684-.027-.8.346-.85.926-.6a1.631 1.631 0 0 1 1.075 1.6c0 1.806-.006 3.612 0 5.418a1.662 1.662 0 0 1-.601 1.327z" transform="translate(379.16 -504.72)" style="fill:#fff"/>
        </g>
        <g style="filter:url(#d3noi32h4b)">
            <path data-name="Trazado 15" d="M-254.668 579.607a7.568 7.568 0 0 0-7.664 7.708 7.653 7.653 0 0 0 7.7 7.7 7.67 7.67 0 0 0 7.727-7.674 7.627 7.627 0 0 0-7.763-7.734zm.037 11.516a3.742 3.742 0 0 1-3.825-3.831 3.787 3.787 0 0 1 3.828-3.841 3.78 3.78 0 0 1 3.826 3.844 3.71 3.71 0 0 1-3.828 3.828z" transform="translate(294.89 -560.01)" style="fill:#fff"/>
        </g>
        <g style="filter:url(#tboau6tosc)">
            <path data-name="Trazado 14" d="M-261.193 649.462a5.087 5.087 0 0 0-7.178-1.129 5.075 5.075 0 0 1-6.15-.072 4.132 4.132 0 0 0-3-.96 6.027 6.027 0 0 0-4.361 2.5 13.29 13.29 0 0 0-2.081 7.815 5.606 5.606 0 0 0 5.911 6.024c2.2.021 4.4 0 6.607 0 2.347 0 4.694.034 7.04-.009a5.216 5.216 0 0 0 5.329-4.211 12.194 12.194 0 0 0-2.117-9.958zm-1.635 9.065c-.134 1.035-1.072 1.258-2 1.261-2.2.006-4.406 0-6.609 0-2.131 0-4.262.016-6.392 0-1.707-.016-2.264-.595-2.243-2.3a10.227 10.227 0 0 1 1.025-4.925c.787-1.437 1.458-1.607 2.831-.779a8.772 8.772 0 0 0 9.8-.094c1.082-.67 1.754-.6 2.424.479a9.409 9.409 0 0 1 1.164 6.359z" transform="translate(311.66 -611.65)" style="fill:#fff"/>
        </g>
    </g>
</svg>
