<svg xmlns="http://www.w3.org/2000/svg" width="35.06" height="43.825" viewBox="0 0 35.06 43.825">
    <g data-name="Grupo 817" transform="translate(-887.216 -880.2)">
        <rect data-name="Rectángulo 432" width="35.06" height="43.825" rx="10" transform="translate(887.216 880.2)" style="fill:#3ed2ff"/>
        <g data-name="Grupo 815">
            <path data-name="Trazado 560" d="M-1084.636 8.665a.583.583 0 0 0-.156-.4c-.335-.374-.663-.755-.994-1.134q-1.539-1.767-3.082-3.529a8.623 8.623 0 0 0-.988-1.073h-9.33a4.124 4.124 0 0 0-.63.121 3.194 3.194 0 0 0-2.014 2.477c-.057.3-.054.308-.368.3a4.086 4.086 0 0 0-1.128.107 3.069 3.069 0 0 0-2.24 2.916c0 4.873.006 9.747-.007 14.62a3.166 3.166 0 0 0 .835 2.267 2.729 2.729 0 0 0 2.052.977h11.464a1.975 1.975 0 0 0 .642-.077 3.2 3.2 0 0 0 2.162-2.3c.049-.175-.01-.409.149-.515s.362-.035.547-.035a3.137 3.137 0 0 0 3.088-3.1V8.892a16.59 16.59 0 0 1-.002-.227zm-5.266-4.619 3.706 4.422h-2.189a1.111 1.111 0 0 1-.872-.543 3.06 3.06 0 0 1-.646-1.912c.003-.635.003-1.269.003-1.967zm-1.559 20.76q-5.5.007-11 0a1.553 1.553 0 0 1-1.552-1.616V8.613a1.482 1.482 0 0 1 1.121-1.556 6.767 6.767 0 0 1 1.015-.075c.072 0 .1.025.092.093s0 .124 0 .186c0 4.316.026 8.632-.013 12.948a3.2 3.2 0 0 0 3.135 3.124c2.83-.048 5.662-.013 8.493-.013h.252a1.535 1.535 0 0 1-1.543 1.486zm5.273-4.655a1.575 1.575 0 0 1-1.695 1.687h-10.717a1.575 1.575 0 0 1-1.695-1.686V5.694a1.573 1.573 0 0 1 1.678-1.68h6.985c.191 0 .259.028.255.243-.015.928-.009 1.856-.006 2.785a3.064 3.064 0 0 0 2.473 2.87 17.387 17.387 0 0 0 2.084.048c.207.007.48-.067.6.038s.037.391.037.6q.002 4.772 0 9.552z" transform="translate(1999.85 887.691)" style="fill:#fff"/>
            <path data-name="Trazado 561" d="M-907.927 335.479h-3.248a.759.759 0 0 1-.834-.633.748.748 0 0 1 .753-.857c.534-.007 1.067 0 1.6 0h5.035a.737.737 0 0 1 .687.39.7.7 0 0 1-.015.746.793.793 0 0 1-.753.358c-1.075-.007-2.15-.004-3.225-.004z" transform="translate(1814.533 570.345)" style="fill:#fff"/>
            <path data-name="Trazado 562" d="M-907.879 248.3h-3.224a.751.751 0 0 1-.835-.682.751.751 0 0 1 .8-.813H-904.573a.749.749 0 0 1 .706 1.12.777.777 0 0 1-.743.377h-2.6z" transform="translate(1814.462 653.812)" style="fill:#fff"/>
        </g>
    </g>
</svg>
