<svg xmlns="http://www.w3.org/2000/svg" width="18.443" height="18.442" viewBox="0 0 18.443 18.442">
    <g data-name="Grupo 812">
        <path data-name="Trazado 551" d="M-745.129-2232.862a2.76 2.76 0 0 1 .32-.846 2.091 2.091 0 0 1 1.826-1.024c2.155-.007 4.309 0 6.464 0a1.077 1.077 0 0 1 1.116 1.086 1.077 1.077 0 0 1-1.109 1.075h-4.123c-.141 0-.175.036-.174.175.006 1.338 0 2.677.007 4.015 0 .136-.034.172-.171.187a2.123 2.123 0 0 0-1.936 1.7 2.074 2.074 0 0 0 .421 1.789c.04.052.084.1.131.158a4 4 0 0 0-.793.619 3.258 3.258 0 0 0-.9 2.279c-.005.348 0 .7 0 1.044h-.684a.493.493 0 0 1-.4-.432z" transform="translate(745.129 2239.057)" style="fill:#b5bbbf"/>
        <path data-name="Trazado 552" d="M-685.322-1931.57v-1.1a2.173 2.173 0 0 1 1.936-2.175 2.178 2.178 0 0 1 2.336 1.677 1.788 1.788 0 0 1 .051.427v1.17z" transform="translate(687.483 1950.012)" style="fill:#b5bbbf"/>
        <path data-name="Trazado 553" d="M-535.794-1931.57v-1.1a2.173 2.173 0 0 1 1.936-2.175 2.178 2.178 0 0 1 2.336 1.677 1.791 1.791 0 0 1 .051.427v1.17z" transform="translate(543.358 1950.012)" style="fill:#b5bbbf"/>
        <path data-name="Trazado 554" d="M-386.268-1931.575v-1.115a2.178 2.178 0 0 1 1.933-2.158 2.19 2.19 0 0 1 2.343 1.689 4.11 4.11 0 0 1 .036 1.11.6.6 0 0 1-.387.474z" transform="translate(399.236 1950.017)" style="fill:#b5bbbf"/>
        <path data-name="Trazado 555" d="M-559.824-2344.583h-5.367a.545.545 0 0 1-.617-.615c0-.462.007-.925 0-1.387 0-.142.042-.163.17-.162.642.007 1.285 0 1.927 0a2.156 2.156 0 0 0 2.154-1.68.281.281 0 0 1 .174-.2q2.487-1.232 4.971-2.47a.547.547 0 0 0 .357-.6.537.537 0 0 0-.8-.375c-.708.346-1.412.7-2.118 1.05-.845.419-1.691.837-2.534 1.26-.1.049-.139.046-.193-.062a2.138 2.138 0 0 0-2.021-1.245 77.364 77.364 0 0 0-1.927 0c-.126 0-.158-.029-.157-.156.006-.84 0-1.681 0-2.521a.533.533 0 0 1 .575-.567h10.805a.535.535 0 0 1 .578.582v8.554a.537.537 0 0 1-.59.589z" transform="translate(572.292 2354.308)" style="fill:#b5bbbf"/>
        <path data-name="Trazado 556" d="M-711.978-2352.68a1.624 1.624 0 0 1-1.624 1.617 1.624 1.624 0 0 1-1.618-1.624 1.625 1.625 0 0 1 1.624-1.618 1.625 1.625 0 0 1 1.618 1.625z" transform="translate(716.301 2354.304)" style="fill:#b5bbbf"/>
        <path data-name="Trazado 557" d="M-654.333-2024.357a1.08 1.08 0 0 1 1.085 1.081 1.08 1.08 0 0 1-1.085 1.081 1.08 1.08 0 0 1-1.076-1.072 1.08 1.08 0 0 1 1.076-1.09z" transform="translate(658.651 2036.28)" style="fill:#b5bbbf"/>
        <path data-name="Trazado 558" d="M-504.81-2024.358a1.08 1.08 0 0 1 1.089 1.076 1.08 1.08 0 0 1-1.081 1.085 1.08 1.08 0 0 1-1.08-1.067 1.08 1.08 0 0 1 1.072-1.094z" transform="translate(514.527 2036.28)" style="fill:#b5bbbf"/>
        <path data-name="Trazado 559" d="M-354.193-2023.268a1.08 1.08 0 0 1-1.093 1.072 1.08 1.08 0 0 1-1.068-1.1 1.081 1.081 0 0 1 1.084-1.063 1.08 1.08 0 0 1 1.077 1.091z" transform="translate(370.403 2036.28)" style="fill:#b5bbbf"/>
    </g>
</svg>
